{"title":"Discovery 2013 - Creatures of the Deep Ocean 720p","uid":10324855,"size":1997288158,"categoryP":"video","categoryS":"hd___tv_shows","magnet":"?xt=urn:btih:4ff772efb8ae711cf7b0e61734d3cd97a9c11bab&amp;dn=Discovery+2013+-+Creatures+of+the+Deep+Ocean+720p&amp;tr=udp%3A%2F%2Ftracker.openbittorrent.com%3A80&amp;tr=udp%3A%2F%2Fopen.demonii.com%3A1337&amp;tr=udp%3A%2F%2Ftracker.coppersurfer.tk%3A6969&amp;tr=udp%3A%2F%2Fexodus.desync.com%3A6969","seeders":8,"leechers":5,"uploader":"n33dypoo","files":1,"time":1402346825,"description":"[IMG]http://i.imgur.com/C0Oqvt8.png[/IMG]\n\n[IMG]http://i.imgur.com/bAOzD02.png[/IMG]\n\n[IMG]http://i.imgur.com/KTAl2B0.png[/IMG]\n\n[IMG]http://i.imgur.com/PCEN1On.png[/IMG]\n\nDiscovery 2013 - Creatures of the Deep Ocean National Geographic Documentary.mkv\nFormat                                   : Matroska\nFormat version                           : Version 2\nFile size                                : 1.86 GiB\nDuration                                 : 44mn 58s\nOverall bit rate                         : 5 922 Kbps\nMovie name                               : Discovery 2013 - Creatures of the Deep Ocean HD  National Geographic Documentary\nEncoded date                             : UTC 2014-06-09 15:53:10\nWriting application                      : DVDFab\nWriting library                          : libebml v0.7.8 + libmatroska v0.8.1\n\nVideo\nID                                       : 1\nFormat                                   : AVC\nFormat/Info                              : Advanced Video Codec\nFormat profile                           : &lt;a class=&quot;__cf_email__&quot; href=&quot;/cdn-cgi/l/email-protection&quot; data-cfemail=&quot;6a22030d022a265e445b&quot;&gt;[email&amp;#160;protected]&lt;/a&gt;&lt;script cf-hash='f9e31' type=&quot;text/javascript&quot;&gt;\n/* &lt;![CDATA[ */!function(){try{var t=&quot;currentScript&quot;in document?document.currentScript:function(){for(var t=document.getElementsByTagName(&quot;script&quot;),e=t.length;e--;)if(t[e].getAttribute(&quot;cf-hash&quot;))return t[e]}();if(t&amp;&amp;t.previousSibling){var e,r,n,i,c=t.previousSibling,a=c.getAttribute(&quot;data-cfemail&quot;);if(a){for(e=&quot;&quot;,r=parseInt(a.substr(0,2),16),n=2;a.length-n;n+=2)i=parseInt(a.substr(n,2),16)^r,e+=String.fromCharCode(i);e=document.createTextNode(e),c.parentNode.replaceChild(e,c)}}}catch(u){}}();/* ]]&gt; */&lt;/script&gt;\nFormat settings, CABAC                   : Yes\nFormat settings, ReFrames                : 2 frames\nCodec ID                                 : V_MPEG4/ISO/AVC\nDuration                                 : 44mn 58s\nBit rate                                 : 5 612 Kbps\nWidth                                    : 1 280 pixels\nHeight                                   : 720 pixels\nDisplay aspect ratio                     : 16:9\nFrame rate mode                          : Constant\nFrame rate                               : 25.000 fps\nColor space                              : YUV\nChroma subsampling                       : 4:2:0\nBit depth                                : 8 bits\nScan type                                : Progressive\nBits/(Pixel*Frame)                       : 0.244\nStream size                              : 1.76 GiB (95%)\nWriting library                          : x264 core\nDefault                                  : Yes\nForced                                   : No\nColor primaries                          : BT.709\nTransfer characteristics                 : BT.709\nMatrix coefficients                      : BT.709\n\nAudio\nID                                       : 2\nFormat                                   : AC-3\nFormat/Info                              : Audio Coding 3\nMode extension                           : CM (complete main)\nFormat settings, Endianness              : Big\nCodec ID                                 : A_AC3\nDuration                                 : 44mn 58s\nBit rate mode                            : Constant\nBit rate                                 : 192 Kbps\nChannel count                            : 2 channels\nChannel positions                        : Front: L R\nSampling rate                            : 48.0 KHz\nBit depth                                : 16 bits\nCompression mode                         : Lossy\nStream size                              : 61.8 MiB (3%)\nDefault                                  : Yes\nForced                                   : No\n","torrent":{"xt":"urn:btih:4ff772efb8ae711cf7b0e61734d3cd97a9c11bab","amp;dn":"Discovery+2013+-+Creatures+of+the+Deep+Ocean+720p","amp;tr":["udp%3A%2F%2Ftracker.openbittorrent.com%3A80","udp%3A%2F%2Fopen.demonii.com%3A1337","udp%3A%2F%2Ftracker.coppersurfer.tk%3A6969","udp%3A%2F%2Fexodus.desync.com%3A6969"],"infoHash":"4ff772efb8ae711cf7b0e61734d3cd97a9c11bab","infoHashBuffer":{"type":"Buffer","data":[79,247,114,239,184,174,113,28,247,176,230,23,52,211,205,151,169,193,27,171]},"announce":[],"urlList":[]}}